<svg xmlns="http://www.w3.org/2000/svg" width="766" height="989" viewBox="0 0 766 989">
  <defs>
    <style>
      .cls-1 {
        fill: none;
        stroke: #000;
        stroke-width: 0.265px;
        fill-rule: evenodd;
      }
    </style>
  </defs>
  <path id="Фигура_1" data-name="Фигура 1" class="cls-1" d="M503,800l-95-6-9,113s-85.293,171.71-216,16l-6-141-54-13H76S10.663,749.523,3,643,6,490,6,490l6-93,16-64s9.843-77.661,104-51c0,0,30.8-.695,37-8,0,0,44.506-281.39,155-265,15.511,2.3,145-8,145-8S587.74,6.249,661,102l18,39,13,27s137.656,85,36,214l6,119-3,97L721,703l-17,76-16,42s0.653,94.361-32,114c0,0-66.944,24.823-112-1C544,934,492.508,907.913,503,800Z"/>
</svg>
